<?xml version="1.0" standalone="no"?>
<!DOCTYPE svg PUBLIC "-//W3C//DTD SVG 20010904//EN"
 "http://www.w3.org/TR/2001/REC-SVG-20010904/DTD/svg10.dtd">
<svg version="1.0" xmlns="http://www.w3.org/2000/svg"
 width="512.000000pt" height="512.000000pt" viewBox="0 0 512.000000 512.000000"
 preserveAspectRatio="xMidYMid meet">

<g transform="translate(0.000000,512.000000) scale(0.100000,-0.100000)"
fill="#000000" stroke="none">
<path d="M1795 5106 c-90 -29 -166 -86 -208 -159 -27 -45 -211 -607 -220 -670
-12 -83 26 -201 84 -263 l30 -31 -436 -1101 c-239 -606 -435 -1109 -435 -1117
0 -24 46 -65 74 -65 37 0 55 10 70 39 10 20 200 494 327 818 8 23 9 23 70 -17
242 -156 549 -117 747 94 100 108 152 240 152 391 0 161 -53 288 -170 406 -89
90 -178 139 -295 164 -44 9 -81 18 -83 19 -1 2 23 67 54 145 55 138 57 142 83
137 14 -3 76 -10 136 -16 540 -51 1019 -272 1407 -648 401 -390 646 -898 698
-1452 5 -63 13 -127 16 -141 5 -26 2 -28 -338 -163 -365 -145 -387 -157 -431
-239 -22 -41 -22 -49 -25 -469 -3 -410 -4 -427 -23 -444 -29 -26 -87 -24 -110
5 -18 21 -19 44 -19 292 0 153 -5 289 -11 318 -13 62 -43 107 -94 143 -111 78
-267 39 -335 -82 -23 -42 -25 -57 -30 -223 -5 -162 -7 -180 -24 -193 -26 -18
-76 -18 -103 1 -15 11 -24 30 -28 63 -11 80 -34 129 -81 170 -50 45 -116 67
-173 59 -21 -2 -132 -41 -245 -86 -113 -45 -208 -81 -210 -81 -2 0 -6 37 -9
83 -24 370 -416 590 -752 420 -79 -41 -170 -135 -214 -224 -96 -190 -72 -396
63 -562 26 -32 46 -60 44 -61 -5 -5 -509 -202 -535 -210 -31 -10 -67 27 -57
57 4 12 114 294 245 626 132 331 239 616 239 632 0 16 -9 38 -20 49 -25 25
-81 26 -103 3 -8 -10 -127 -299 -264 -643 -227 -573 -248 -630 -248 -685 0
-113 77 -190 189 -190 57 0 123 25 975 363 724 287 921 361 943 356 36 -7 54
-36 63 -99 27 -190 233 -275 377 -155 66 55 78 95 78 267 0 156 9 206 40 223
27 14 73 12 96 -4 18 -14 19 -32 25 -318 6 -345 9 -360 86 -428 113 -99 282
-64 356 74 22 40 22 49 25 467 3 397 4 428 21 443 10 9 172 77 360 152 l341
135 42 -35 c58 -50 133 -76 219 -76 61 0 106 12 361 95 161 53 314 108 340
122 62 34 113 90 147 162 23 50 26 67 25 156 -2 181 -72 519 -164 795 -112
337 -272 650 -482 942 -237 332 -578 663 -913 888 -199 133 -453 270 -500 270
-30 0 -75 -43 -75 -72 0 -39 22 -57 146 -122 395 -208 723 -464 997 -776 454
-519 732 -1124 828 -1804 18 -128 18 -143 4 -191 -28 -96 -52 -110 -387 -220
-331 -109 -360 -113 -438 -61 -49 32 -90 110 -90 172 0 22 -7 89 -15 150 -75
563 -310 1040 -709 1440 -412 411 -929 659 -1491 715 -66 6 -137 16 -158 21
-74 18 -146 109 -147 187 0 18 43 166 96 330 93 287 98 297 139 338 59 56 102
64 242 47 229 -29 442 -78 653 -149 105 -35 129 -37 163 -7 21 19 22 70 2 99
-35 50 -484 169 -782 208 -135 18 -184 18 -238 1z"/>
<path d="M2056 4719 c-43 -34 -35 -99 16 -125 79 -41 151 71 82 125 -15 12
-37 21 -49 21 -12 0 -34 -9 -49 -21z"/>
<path d="M1790 4480 c-46 -46 -13 -130 51 -130 43 0 65 15 78 51 12 35 -5 82
-34 93 -32 12 -75 6 -95 -14z"/>
<path d="M2250 4420 c-44 -44 -10 -130 52 -130 40 0 78 36 78 74 0 67 -83 103
-130 56z"/>
<path d="M2369 3329 c-25 -25 -22 -52 11 -144 19 -50 21 -73 16 -139 -6 -88 0
-108 43 -125 24 -10 34 -10 59 3 39 20 52 60 52 160 0 91 -33 201 -71 242 -29
31 -81 32 -110 3z"/>
<path d="M3024 2940 c-26 -10 -54 -48 -54 -72 0 -9 11 -29 23 -44 47 -55 127
-26 127 46 0 54 -48 89 -96 70z"/>
<path d="M2320 2670 c-30 -30 -27 -83 6 -109 50 -39 108 -16 120 46 13 65 -78
111 -126 63z"/>
<path d="M2825 2546 c-191 -61 -317 -215 -340 -416 -9 -73 15 -184 56 -260 54
-101 188 -209 292 -234 33 -8 83 16 92 44 5 17 15 20 58 20 29 1 68 7 88 14
32 11 39 10 59 -6 31 -25 67 -23 106 7 139 106 212 282 185 447 -29 179 -149
320 -319 377 -71 24 -212 28 -277 7z"/>
<path d="M2000 2371 c-98 -31 -212 -119 -226 -175 -10 -40 22 -80 68 -84 30
-3 44 4 93 47 54 48 124 81 170 81 38 0 75 37 75 74 0 71 -68 93 -180 57z"/>
<path d="M4541 2284 c-26 -33 -26 -54 -1 -105 31 -59 43 -140 30 -190 -14 -53
0 -93 41 -109 72 -30 111 14 117 135 5 94 -19 193 -61 256 -19 28 -30 35 -64
37 -34 3 -44 -1 -62 -24z"/>
<path d="M1173 2080 c-155 -89 -150 -320 8 -401 81 -41 163 -35 242 19 115 77
125 255 20 354 -69 66 -183 78 -270 28z m157 -130 c39 -21 45 -97 9 -127 -29
-24 -82 -19 -109 9 -58 62 23 159 100 118z"/>
<path d="M2183 1948 c-33 -16 -48 -60 -31 -95 27 -56 109 -57 132 -1 17 39 11
63 -22 88 -27 22 -46 24 -79 8z"/>
<path d="M3501 1834 c-34 -43 -26 -86 20 -109 39 -21 56 -19 84 10 50 49 20
125 -49 125 -25 0 -40 -7 -55 -26z"/>
<path d="M2160 1557 c-141 -39 -209 -194 -144 -326 86 -171 325 -168 410 5 69
142 -21 305 -181 328 -22 3 -60 -1 -85 -7z m115 -172 c49 -49 16 -125 -55
-125 -30 0 -43 6 -59 26 -62 79 43 170 114 99z"/>
<path d="M1505 1508 c-64 -37 -59 -112 9 -138 82 -31 135 94 56 135 -34 18
-39 18 -65 3z"/>
</g>
</svg>
